<?xml version="1.0" encoding="utf-8"?>
<!-- Generator: Adobe Illustrator 24.2.3, SVG Export Plug-In . SVG Version: 6.00 Build 0)  -->
<svg version="1.1" id="Camada_1" xmlns="http://www.w3.org/2000/svg" xmlns:xlink="http://www.w3.org/1999/xlink" x="0px" y="0px"
	 viewBox="0 0 2000 666" style="enable-background:new 0 0 2000 666;" xml:space="preserve">
<style type="text/css">
	.st0{fill:#FFFFFF;}
</style>
<g>
	<path class="st0" d="M840.6,333.7v170l64.7-0.3c63.2-0.5,64.8-0.5,73.1-3c18.4-5.5,33.1-15.1,45.1-29.6
		c21.2-25.9,27-60.3,15.8-94.2c-7.5-22.7-24.2-42.1-44.3-51.8c-5.6-2.7-11.6-5.4-13.1-6c-2.5-0.9-2.3-1.2,4.1-5.1
		c3.7-2.4,10.3-8,14.7-12.5c14-14.8,20.7-32.6,20.7-55.2c0-15.6-2.3-25.7-8.5-38.7c-7.9-16.5-24.3-31.6-41.1-37.9
		c-13.7-5.1-19.7-5.5-77-5.5h-54.1V333.7z M957.2,178.4c10.6,2.1,24.1,9.5,32,17.3c21.6,21.6,25.9,59.4,9.9,86.4
		c-5.8,9.7-16.8,19.8-27,24.6c-13.4,6.3-20.1,7-72.4,7.1h-46.6v-68.3v-68.3h49.1C933.1,177.2,953.5,177.6,957.2,178.4z M961.5,327.5
		c19.4,2.4,32.8,9,47.1,23.2c15.8,15.7,22.9,34.4,22.9,60.1c0,24.2-6.4,39.5-23.6,56.7c-8.5,8.4-12.8,11.7-19.3,14.9
		c-15.2,7.5-16.7,7.7-79.3,7.7h-56.2v-81.9v-81.9h49.5C930.4,326.2,956.1,326.8,961.5,327.5z"/>
	<path class="st0" d="M1205,164.5c-1,1.7-127,334.5-127.4,336.5c-0.3,1.6,0.7,1.9,5.9,2.3l6.3,0.3l19.7-52.5l19.8-52.6l80.1,0.3
		l80.2,0.2l19.7,52.2l19.8,52.3h6c3.3,0,6.2-0.3,6.4-0.9c0.3-0.5-28.3-76.8-63.6-169.6l-64-168.8l-4-0.3
		C1207.4,163.6,1205.3,163.9,1205,164.5z M1247.6,289.1l36.4,95.3l-36.9,0.3c-20.3,0.1-54,0.1-74.8,0l-37.7-0.3l33.1-87
		c18.3-47.9,35.1-91.8,37.4-97.7c3.4-8.9,4.3-10.3,5.1-8.4C1210.7,192.6,1227.5,236.6,1247.6,289.1z"/>
	<path class="st0" d="M1397.1,164.4c-1,0.9-1,334.8-0.1,337.3c0.6,1.4,2.3,1.8,6.8,1.8h6.1l0.2-155.4l0.3-155.3l111.8,155.3
		c108.2,150.3,111.9,155.4,115.2,155.1l3.4-0.2V333.6V164.2h-6.2h-6.2l-0.6,153.5l-0.6,153.6l-103.3-143.4
		c-132.4-183.7-117.8-164.2-122.3-164.2C1399.4,163.6,1397.4,163.9,1397.1,164.4z"/>
	<path class="st0" d="M1717.6,165c-0.3,0.8-0.5,77.1-0.3,169.7l0.3,168.3h6.2h6.2l0.3-55.9l0.2-56l27.2-31.4l27.2-31.4l5.9,8.1
		c3.2,4.5,31.2,43.8,62.2,87.3l56.5,79.3l6.7,0.3c3.6,0.2,7.1-0.1,7.6-0.6c0.6-0.6-28.5-42.3-64.5-92.8
		c-64.8-90.9-65.5-91.8-63.6-94.3c1.1-1.4,30.3-35.3,64.7-75.6s62.8-73.9,63-74.8c0.3-1.4-1.1-1.7-6.9-1.7h-7.3l-89.1,103.8
		l-89,103.7l-0.6-103.4l-0.6-103.4l-6-0.3C1719.9,163.6,1717.9,163.9,1717.6,165z"/>
	<path class="st0" d="M450,307.2c-2.1,0.1-3.7,0.2-5.4,0.2c-35.2,0-70.4-0.1-105.6,0.1c-4,0-5.7-1.3-7.3-5
		c-10.9-26.1-29.3-43.4-58.4-45.7c-35.5-2.8-61.8,17.1-70.3,51.8c-5.4,22.2-4.6,44.3,6.1,64.9c13.5,26.2,35.9,38.1,65,35.5
		c27.6-2.5,45.4-18.9,55.6-44.1c0.8-1.9,1.4-3.9,2-5.9c0.6-1.8,1.1-3.6,1.6-5.5c39.3,0,78.4,0,118.6,0c-1.7,9-2.9,17.7-4.9,26.2
		c-16.5,70-75.4,123-147,132.4c-47.6,6.2-93.2,0.5-135.1-24.1c-49.4-29.1-77.6-72.8-84.8-129.6c-5.7-44.7,1.7-87.1,26.6-125.3
		c29.9-45.8,73.4-70.7,126.6-79c38.4-6,76.2-3.1,112.4,12.3C402.3,190.5,443.1,242,450,307.2z"/>
	<path class="st0" d="M689.2,164c-21.1,34.4-42.1,68.7-62.7,102.2c15.3,1.4,30.6,1.7,45.4,4.3c54.2,9.7,91.4,55.3,91.8,110.5
		c0.3,35-8.9,66.1-33.6,91.7c-20.4,21.1-45.6,33.5-74.3,38.5c-33.8,5.8-67.2,4.7-99.4-7.7c-53.9-20.8-83.2-66.9-81.1-126.5
		c1.1-31.2,9.8-60.7,24.6-87.8c18-33,37.9-64.9,57-97.3c5.1-8.6,10.3-17.1,15.7-25.4c1-1.6,3.3-3.4,5-3.4c36.7-0.2,73.4-0.1,110.1,0
		C687.9,163.2,688.2,163.5,689.2,164z M621.5,338.8c-25.4-1.5-45.2,16.4-46.3,43.2c-1.1,24.7,14.5,44.9,43.1,46.3
		c24.3,1.2,44.1-16.4,45.7-40.9C665.7,360.1,648.5,340.4,621.5,338.8z"/>
</g>
</svg>
