<svg id="Layer_1" data-name="Layer 1" xmlns="http://www.w3.org/2000/svg" viewBox="0 0 468.36 124.02"><defs><style>.cls-1{fill:#fff;}.cls-2{fill:#eb0028;}</style></defs><path class="cls-1" d="M346.37,78.54c2.48,0,3,.34,3,9.11v8.1c0,8.43-.67,9.41-3,9.41H318.26v94.75c0,2.14-2.65,2.65-12.07,2.65h-4.95c-9.59,0-11.25-.51-11.25-2.65V105.16h-28.1c-2.32,0-3-.65-3-9.41v-8.1c0-9.1.5-9.1,3-9.1Zm50.41,2.65c0-1.81-2.64-2.65-11.73-2.65h-5.29c-9.59,0-11.23.84-11.23,2.65V199.91c0,2.14,1.64,2.65,11.23,2.65h5.29c9.09,0,11.73-.51,11.73-2.65ZM534,78.54h-8.27c-10.6,0-11.25,1.16-12.08,3L497.3,120.87c-5.45,13.06-11.07,27.12-13.22,34.41-2-7.29-5.63-17.05-13.24-35.07L454.5,81.53c-1-2.32-5.15-3-14.07-3h-9.25c-9.09,0-10.91.84-10.91,2.65V199.91c0,2.14,1.82,2.65,11.24,2.65h5.12c9.26,0,11.92-.51,11.92-2.65V129.47h.65a42.34,42.34,0,0,0,2.16,6.28l18.83,44.15c.83,2,1.81,2.81,10.59,2.81h5.61c8.93,0,9.6-.67,10.42-2.81L514,137.41c1.65-4,2.81-7.94,2.81-7.94h.65v70.44c0,2.14,1.82,2.65,11.57,2.65l5,0c9.08,0,11.73-.49,11.73-2.63V81.19c0-1.81-2.65-2.65-11.73-2.65" transform="translate(-77.39 -78.54)"/><path class="cls-2" d="M218.63,105.09H84.51A7.1,7.1,0,0,1,77.39,98V85.7a7.1,7.1,0,0,1,7.12-7.14H218.63a7.17,7.17,0,0,1,7.14,7.14V98a7.15,7.15,0,0,1-7.14,7.14m-81.9,22.2H84.51a7.12,7.12,0,0,0-7.12,7.13v12.25a7.1,7.1,0,0,0,7.12,7.14h52.22Zm87,2.11a7.06,7.06,0,0,0-5.07-2.11H166.41v26.52h52.22a7.06,7.06,0,0,0,5.07-2.12,7.14,7.14,0,0,0,2.07-5V134.42a7.14,7.14,0,0,0-2.07-5m0,48.73a7.07,7.07,0,0,0-5.07-2.13H166.41v26.53h52.22a7.14,7.14,0,0,0,7.14-7.15V183.14a7.12,7.12,0,0,0-2.07-5m-87-2.13H84.51a7.14,7.14,0,0,0-7.12,7.14v12.24a7.12,7.12,0,0,0,7.12,7.15h52.22Z" transform="translate(-77.39 -78.54)"/></svg>