<svg id="logosandtypes_com" xmlns="http://www.w3.org/2000/svg" viewBox="0 0 150 150"><path d="M0 0h150v150H0V0z" fill="none"/><path d="M61.6 105.8H14.7c-1.8 0-3.4.7-4.5 1.9s-1.9 2.8-1.9 4.5v11c0 1.8.7 3.4 1.9 4.5 1.1 1.2 2.8 1.9 4.5 1.9h46.9v-23.8zm78.1 1.9c-1.1-1.2-2.8-1.9-4.5-1.9h-47v23.8h46.9c1.8 0 3.4-.7 4.5-1.9 1.1-1.1 1.8-2.8 1.8-4.5v-11c.1-1.8-.6-3.4-1.7-4.5m0-43.8c-1.1-1.2-2.8-1.9-4.5-1.9h-47v23.8h46.9c1.8 0 3.4-.7 4.5-1.9 1.1-1.1 1.8-2.8 1.8-4.5v-11c.1-1.7-.6-3.3-1.7-4.5M61.6 62H14.7c-1.8 0-3.4.7-4.5 1.9-1.1 1.1-1.9 2.8-1.9 4.5v11c0 1.7.7 3.3 1.9 4.5 1.1 1.2 2.8 1.9 4.5 1.9h46.9V62zm73.5-19.9H14.7c-1.8 0-3.4-.7-4.5-1.9C9 39 8.3 37.4 8.3 35.7v-11c0-1.7.7-3.4 1.9-4.5 1.1-1.2 2.8-1.9 4.5-1.9h120.4c1.8 0 3.4.7 4.5 1.9 1.1 1.1 1.8 2.8 1.8 4.5v11c0 1.7-.7 3.3-1.8 4.5-1.1 1.2-2.7 1.9-4.5 1.9" fill="#e40d2c"/></svg>