<svg data-v-0ba2f1a5="" data-v-3f7e6ee9="" xmlns="http://www.w3.org/2000/svg" width="20" height="20" viewBox="0 0 35.139 28.554"><g data-v-0ba2f1a5="" id="Group_2106" data-name="Group 2106" transform="translate(4479.967 -1547.807)"><path data-v-0ba2f1a5="" id="Path_443" data-name="Path 443" d="M201.761,89.183h-2.207A16.6,16.6,0,0,0,182.973,72.6V70.395a18.81,18.81,0,0,1,18.788,18.788" transform="translate(-4646.589 1477.412)" fill="#FF6D00"></path> <path data-v-0ba2f1a5="" id="Path_444" data-name="Path 444" d="M192.908,89.161H190.7a7.737,7.737,0,0,0-7.729-7.727V79.226a9.947,9.947,0,0,1,9.936,9.935" transform="translate(-4646.589 1477.412)" fill="#FF6D00"></path> <path data-v-0ba2f1a5="" id="Path_445" data-name="Path 445" d="M197.323,89.161h-2.207a12.157,12.157,0,0,0-12.143-12.143V74.811a14.366,14.366,0,0,1,14.35,14.35" transform="translate(-4646.589 1477.412)" fill="#FF6D00"></path> <path data-v-0ba2f1a5="" id="Path_446" data-name="Path 446" d="M172.8,98.751V95.392h-6.18V93.246l6.258-8.5,1.65,1.271-5.365,7.273H172.8V90.425h2.126v2.861h1.45v2.106h-1.45v3.358Z" transform="translate(-4646.589 1477.412)" fill="#FF6D00"></path> <path data-v-0ba2f1a5="" id="Path_447" data-name="Path 447" d="M187.824,89.093H185.7a2.877,2.877,0,0,0-5.7.458v4.49a2.863,2.863,0,0,0,5.724,0v-.893h-2.862V91.1h4.988v2.941a4.988,4.988,0,0,1-9.974,0v-4.49a4.992,4.992,0,0,1,9.954-.458" transform="translate(-4646.589 1477.412)" fill="#FF6D00"></path></g></svg>
