<svg xmlns="http://www.w3.org/2000/svg" width="36.274" height="27.206" viewBox="0 0 36.274 27.206"><defs><style>.a{fill:#ff6d00;}</style></defs><path class="a" d="M32.874,86.617H3.4a3.4,3.4,0,0,1-3.4-3.4V77.548a1.133,1.133,0,0,1,1.134-1.134,3.4,3.4,0,1,0,0-6.8A1.133,1.133,0,0,1,0,68.48V62.812a3.4,3.4,0,0,1,3.4-3.4H32.874a3.4,3.4,0,0,1,3.4,3.4V68.48a1.133,1.133,0,0,1-1.134,1.134,3.4,3.4,0,0,0,0,6.8,1.133,1.133,0,0,1,1.134,1.134v5.668A3.4,3.4,0,0,1,32.874,86.617ZM2.267,78.568v4.648A1.134,1.134,0,0,0,3.4,84.35H32.874a1.134,1.134,0,0,0,1.134-1.134V78.568a5.669,5.669,0,0,1,0-11.108V62.812a1.134,1.134,0,0,0-1.134-1.134H3.4a1.134,1.134,0,0,0-1.134,1.134V67.46a5.668,5.668,0,0,1,0,11.108Z" transform="translate(0 -59.411)"/><path class="a" d="M0,0H19.37V2.268H0Z" transform="translate(13.676 22.258) rotate(-69.444)"/><path class="a" d="M122.224,155.331a3.4,3.4,0,1,1,3.4-3.4A3.4,3.4,0,0,1,122.224,155.331Zm0-4.534a1.134,1.134,0,1,0,1.134,1.134A1.134,1.134,0,0,0,122.224,150.8Z" transform="translate(-109.449 -141.346)"/><path class="a" d="M270.753,244.447a3.4,3.4,0,1,1,3.4-3.4A3.4,3.4,0,0,1,270.753,244.447Zm0-4.534a1.134,1.134,0,1,0,1.134,1.134A1.134,1.134,0,0,0,270.753,239.913Z" transform="translate(-246.261 -223.433)"/></svg>