<svg xmlns="http://www.w3.org/2000/svg" width="39" height="39" viewBox="0 0 39 39"><defs><style>.a,.d{fill:none;}.a{stroke:#ff6d00;stroke-width:2.4px;}.b{fill:#ff6d00;}.c{stroke:none;}</style></defs><g transform="translate(-38 -318)"><g class="a" transform="translate(38 318)"><circle class="c" cx="19.5" cy="19.5" r="19.5"/><circle class="d" cx="19.5" cy="19.5" r="18.3"/></g><path class="b" d="M24.058,14.929a5.738,5.738,0,0,1-4.3,5.547v2.329a1.432,1.432,0,1,1-2.864,0v-3.58a1.432,1.432,0,0,1,1.432-1.432,2.864,2.864,0,1,0-2.864-2.864,1.432,1.432,0,0,1-2.864,0,5.728,5.728,0,1,1,11.456,0ZM20.12,27.1a1.79,1.79,0,1,1-1.79-1.79A1.79,1.79,0,0,1,20.12,27.1Z" transform="translate(39.398 318.799)"/></g></svg>