<svg xmlns="http://www.w3.org/2000/svg" width="37.524" height="36.016" viewBox="0 0 37.524 36.016"><defs><style>.a{fill:#ff6d00;stroke:#ff6d00;stroke-width:0.4px;}</style></defs><g transform="translate(0.238 -10.14)"><path class="a" d="M36.879,23.673a3.208,3.208,0,0,0-3.1-2.246H24.53l-2.914-8.85a3.207,3.207,0,0,0-3.091-2.237H18.51A3.207,3.207,0,0,0,15.423,12.6l-2.829,8.826H3.262a3.256,3.256,0,0,0-1.907,5.894l7.55,5.457L6,41.6A3.207,3.207,0,0,0,7.17,45.25,3.207,3.207,0,0,0,11,45.261l7.563-5.467,7.473,5.458a3.256,3.256,0,0,0,5.02-3.623l-2.837-8.85L35.7,27.312a3.208,3.208,0,0,0,1.175-3.639Zm-2.455,1.886-8.751,6.39,3.315,10.342A1.085,1.085,0,0,1,27.315,43.5l-8.747-6.387L9.727,43.5a1.085,1.085,0,0,1-1.666-1.219l3.4-10.333L2.627,25.563A1.085,1.085,0,0,1,3.262,23.6H14.177L17.49,13.264a1.053,1.053,0,0,1,1.029-.754h0a1.053,1.053,0,0,1,1.031.746L22.959,23.6H33.784a1.085,1.085,0,0,1,.64,1.962Z" transform="translate(0 0)"/></g></svg>