<svg xmlns="http://www.w3.org/2000/svg" width="34.486" height="37.62" viewBox="0 0 34.486 37.62"><defs><style>.a{fill:#ff6d00;}</style></defs><g transform="translate(-21.331)"><g transform="translate(21.331)"><g transform="translate(0)"><path class="a" d="M45.47,60.538a1.568,1.568,0,1,0-1.255,2.873,14.106,14.106,0,1,1-11.285,0,1.568,1.568,0,1,0-1.256-2.872,17.244,17.244,0,1,0,13.8,0Z" transform="translate(-21.331 -55.968)"/><path class="a" d="M236.224,17.243a1.567,1.567,0,0,0,1.568-1.568V1.568a1.568,1.568,0,1,0-3.135,0V15.675A1.568,1.568,0,0,0,236.224,17.243Z" transform="translate(-218.981)"/></g></g></g></svg>