<svg data-v-03106f35="" data-v-3f7e6ee9="" xmlns="http://www.w3.org/2000/svg" width="20" height="20" viewBox="0 0 27.966 44.157"><g data-v-03106f35="" id="Group_2126" data-name="Group 2126" transform="translate(4198.083 -1509.567)"><rect data-v-03106f35="" id="Rectangle_1221" data-name="Rectangle 1221" width="5.888" height="2.207" transform="translate(-4187.044 1513.615)" fill="#FF6D00"></rect> <rect data-v-03106f35="" id="Rectangle_1222" data-name="Rectangle 1222" width="25.759" height="2.207" transform="translate(-4196.979 1518.03)" fill="#FF6D00"></rect> <rect data-v-03106f35="" id="Rectangle_1223" data-name="Rectangle 1223" width="25.759" height="2.208" transform="translate(-4196.979 1533.853)" fill="#FF6D00"></rect> <path data-v-03106f35="" id="Path_869" data-name="Path 869" d="M107.13,383.96a1.472,1.472,0,1,1-1.472-1.472,1.472,1.472,0,0,1,1.472,1.472" transform="translate(-4298.589 1155.412)" fill="#FF6D00"></path> <path data-v-03106f35="" id="Path_870" data-name="Path 870" d="M111.545,383.96a1.472,1.472,0,1,1-1.472-1.472,1.471,1.471,0,0,1,1.472,1.472" transform="translate(-4298.589 1155.412)" fill="#FF6D00"></path> <path data-v-03106f35="" id="Path_871" data-name="Path 871" d="M115.961,383.96a1.472,1.472,0,1,1-1.472-1.472,1.471,1.471,0,0,1,1.472,1.472" transform="translate(-4298.589 1155.412)" fill="#FF6D00"></path> <path data-v-03106f35="" id="Path_872" data-name="Path 872" d="M120.377,383.96a1.472,1.472,0,1,1-1.472-1.472,1.472,1.472,0,0,1,1.472,1.472" transform="translate(-4298.589 1155.412)" fill="#FF6D00"></path> <path data-v-03106f35="" id="Path_873" data-name="Path 873" d="M124.792,383.96a1.472,1.472,0,1,1-1.471-1.472,1.471,1.471,0,0,1,1.471,1.472" transform="translate(-4298.589 1155.412)" fill="#FF6D00"></path> <path data-v-03106f35="" id="Path_874" data-name="Path 874" d="M107.13,388.376a1.472,1.472,0,1,1-1.472-1.472,1.473,1.473,0,0,1,1.472,1.472" transform="translate(-4298.589 1155.412)" fill="#FF6D00"></path> <path data-v-03106f35="" id="Path_875" data-name="Path 875" d="M111.545,388.376a1.472,1.472,0,1,1-1.472-1.472,1.472,1.472,0,0,1,1.472,1.472" transform="translate(-4298.589 1155.412)" fill="#FF6D00"></path> <path data-v-03106f35="" id="Path_876" data-name="Path 876" d="M115.961,388.376a1.472,1.472,0,1,1-1.472-1.472,1.472,1.472,0,0,1,1.472,1.472" transform="translate(-4298.589 1155.412)" fill="#FF6D00"></path> <path data-v-03106f35="" id="Path_877" data-name="Path 877" d="M120.377,388.376A1.472,1.472,0,1,1,118.9,386.9a1.473,1.473,0,0,1,1.472,1.472" transform="translate(-4298.589 1155.412)" fill="#FF6D00"></path> <path data-v-03106f35="" id="Path_878" data-name="Path 878" d="M111.545,392.792a1.472,1.472,0,1,1-1.472-1.472,1.471,1.471,0,0,1,1.472,1.472" transform="translate(-4298.589 1155.412)" fill="#FF6D00"></path> <path data-v-03106f35="" id="Path_879" data-name="Path 879" d="M115.961,392.792a1.472,1.472,0,1,1-1.472-1.472,1.471,1.471,0,0,1,1.472,1.472" transform="translate(-4298.589 1155.412)" fill="#FF6D00"></path> <path data-v-03106f35="" id="Path_880" data-name="Path 880" d="M120.377,392.792a1.472,1.472,0,1,1-1.472-1.472,1.472,1.472,0,0,1,1.472,1.472" transform="translate(-4298.589 1155.412)" fill="#FF6D00"></path> <path data-v-03106f35="" id="Path_881" data-name="Path 881" d="M124.792,388.376a1.472,1.472,0,1,1-1.471-1.472,1.472,1.472,0,0,1,1.471,1.472" transform="translate(-4298.589 1155.412)" fill="#FF6D00"></path> <path data-v-03106f35="" id="Path_882" data-name="Path 882" d="M110.442,356.362a7.735,7.735,0,0,0-7.727,7.727v24.287a7.735,7.735,0,0,0,7.727,7.727h8.1a7.735,7.735,0,0,0,7.727-7.727V364.089a7.735,7.735,0,0,0-7.727-7.727Zm8.1,41.95h-8.1a9.948,9.948,0,0,1-9.936-9.936V364.089a9.946,9.946,0,0,1,9.936-9.934h8.1a9.946,9.946,0,0,1,9.935,9.934v24.287a9.947,9.947,0,0,1-9.935,9.936" transform="translate(-4298.589 1155.412)" fill="#FF6D00"></path></g></svg>
