
<svg xmlns="http://www.w3.org/2000/svg" width="140" height="87" viewBox="0 0 140 87"><defs><style>.a{fill:#004691;}.b,.g{fill:none;}.b{stroke:#4bcfff;}.c,.d{fill:#4bcfff;}.d{font-size:14px;font-family:TIMSans-Bold, TIM Sans;font-weight:700;}.e{fill:#fff;font-size:16px;font-family:TIMSans-Regular, TIM Sans;}.f{stroke:none;}</style></defs><g transform="translate(-223 -910)"><rect class="a" width="138" height="17" transform="translate(224 920)"/><g class="b" transform="translate(223 910)"><rect class="f" width="140" height="87" rx="4"/><rect class="g" x="0.5" y="0.5" width="139" height="86" rx="3.5"/></g><path class="b" d="M56.455,44.228A11.228,11.228,0,1,1,45.228,33,11.227,11.227,0,0,1,56.455,44.228" transform="translate(283.503 931.5)"/><path class="b" d="M63.455,44.228A11.228,11.228,0,1,1,52.228,33,11.227,11.227,0,0,1,63.455,44.228" transform="translate(289.688 931.5)"/><path class="c" d="M0,0H89V13H0Z" transform="translate(233 944)"/><text class="d" transform="translate(354 955)"><tspan x="-23.226" y="0">999</tspan></text><text class="e" transform="translate(297 955)"><tspan x="0" y="0">cvv</tspan></text><g class="b" transform="translate(233 969)"><rect class="f" width="18" height="18" rx="4"/><rect class="g" x="0.5" y="0.5" width="17" height="17" rx="3.5"/></g></g></svg>
