<svg data-v-36bbae8a="" data-v-3f7e6ee9="" xmlns="http://www.w3.org/2000/svg" width="20" height="20" viewBox="0 0 43.051 43.053"><g data-v-36bbae8a="" id="Group_2112" data-name="Group 2112" transform="translate(4553.626 -1753.321)"><path data-v-36bbae8a="" id="Path_762" data-name="Path 762" d="M127.213,278.116l-25.5.043a6.559,6.559,0,0,0-6.539,6.563l.042,25.492a6.562,6.562,0,0,0,6.552,6.541v1.1l.011-1.1,25.49-.044a6.559,6.559,0,0,0,6.54-6.562l-.042-25.492a6.561,6.561,0,0,0-6.552-6.541m-25.447,40.846a8.772,8.772,0,0,1-8.759-8.745l-.044-25.491a8.771,8.771,0,0,1,8.744-8.775l25.491-.042a8.776,8.776,0,0,1,8.775,8.744l.041,25.492a8.767,8.767,0,0,1-8.742,8.773Z" transform="translate(-4646.589 1477.412)" fill="#FF6D00"></path> <path data-v-36bbae8a="" id="Path_763" data-name="Path 763" d="M105.793,284.684a4.432,4.432,0,1,0,0,8.864v1.105l.007-1.105a4.432,4.432,0,0,0-.008-8.864m0,11.073a6.64,6.64,0,0,1-4.7-11.329,6.641,6.641,0,0,1,11.343,4.676,6.651,6.651,0,0,1-6.628,6.653Z" transform="translate(-4646.589 1477.412)" fill="#FF6D00"></path> <path data-v-36bbae8a="" id="Path_764" data-name="Path 764" d="M118.738,301.328l.014,8.844,8.845-.015-.016-8.844Zm-2.191,11.056-.021-13.259,13.26-.024.021,13.261Z" transform="translate(-4646.589 1477.412)" fill="#FF6D00"></path> <path data-v-36bbae8a="" id="Path_765" data-name="Path 765" d="M118.524,284.546l4.633,8,4.607-8.012Zm4.641,12.412L114.7,282.346l16.889-.03Z" transform="translate(-4646.589 1477.412)" fill="#FF6D00"></path> <path data-v-36bbae8a="" id="Path_766" data-name="Path 766" d="M105.821,302.329l-4.607,8.01,9.241-.015Zm-8.427,10.224,8.419-14.639,8.47,14.611Z" transform="translate(-4646.589 1477.412)" fill="#FF6D00"></path></g></svg>
