<svg xmlns="http://www.w3.org/2000/svg" width="29.101" height="36.556" viewBox="0 0 29.101 36.556"><defs><style>.a{fill:none;}.a,.b{stroke:#ff6d00;stroke-width:0.4px;}.b{fill:#ff6d00;}</style></defs><g transform="translate(0.2 0.2)"><path class="a" d="M77.163,19.409V40.646a3.726,3.726,0,0,1-3.727,3.727H54.127A3.726,3.726,0,0,1,50.4,40.646V13.827A3.726,3.726,0,0,1,54.127,10.1H68.3v6.514a2.792,2.792,0,0,0,2.8,2.8Z" transform="translate(-49.431 -9.159)"/><path class="a" d="M242.5,10.1l8.862,9.309H245.3a2.792,2.792,0,0,1-2.8-2.8Z" transform="translate(-223.63 -9.159)"/><path class="b" d="M59.541.289A.924.924,0,0,0,58.87,0H44.7A4.7,4.7,0,0,0,40,4.669V31.487a4.7,4.7,0,0,0,4.7,4.669H64a4.7,4.7,0,0,0,4.7-4.669V10.25a.96.96,0,0,0-.27-.643Zm.214,2.982L65.56,9.318h-3.9a1.91,1.91,0,0,1-1.91-1.864ZM64,34.292H44.7a2.838,2.838,0,0,1-2.833-2.8V4.669a2.838,2.838,0,0,1,2.833-2.8H57.891V7.455a3.766,3.766,0,0,0,3.774,3.727h5.172v20.3A2.832,2.832,0,0,1,64,34.292Z" transform="translate(-40)"/><path class="b" d="M122.282,224h-14.35a.932.932,0,1,0,0,1.864h14.35a.932.932,0,1,0,0-1.864Z" transform="translate(-100.757 -203.127)"/><path class="b" d="M107.932,178.864h8.825a.932.932,0,0,0,0-1.864h-8.825a.932.932,0,0,0,0,1.864Z" transform="translate(-100.757 -160.506)"/><path class="b" d="M122.282,271h-14.35a.932.932,0,1,0,0,1.864h14.35a.932.932,0,1,0,0-1.864Z" transform="translate(-100.757 -245.747)"/></g></svg>