<svg xmlns="http://www.w3.org/2000/svg" width="22.961" height="28.757" viewBox="0 0 22.961 28.757"><defs><style>.a{fill:#fa6523;stroke:#fa6523;stroke-width:0.4px;}</style></defs><path class="a" d="M56.716,0a8.826,8.826,0,0,0-4.969,1.829,15.179,15.179,0,0,0-1.953,1.623h-.752a2.229,2.229,0,1,0-3.722,2.158V7.416H43.776a.573.573,0,0,0-.561.455L42.369,11.9c-2.839,1.432-4.46,4.29-4.46,7.889a9.393,9.393,0,0,0,5.979,8.519l.008,0,.012,0,.015.005.03.01.026.007.026.006.039.006.015,0,.056,0H49.7l.056,0,.015,0,.039-.006.026-.006.026-.007.03-.01.015,0,.012,0,.008,0a9.393,9.393,0,0,0,5.979-8.519c0-3.6-1.622-6.458-4.463-7.89l-.886-4.035a.573.573,0,0,0-.56-.45H48.456V5.609A2.229,2.229,0,0,0,49.043,4.6h.745a15.323,15.323,0,0,0,1.95,1.685,8.631,8.631,0,0,0,4.977,1.9A3.939,3.939,0,0,0,60.47,4.093,3.939,3.939,0,0,0,56.716,0ZM46.889,2.942a1.083,1.083,0,1,1-1.083,1.083A1.084,1.084,0,0,1,46.889,2.942Zm6.838,12.617a8.4,8.4,0,0,1,1.037,4.233,7.729,7.729,0,0,1-1.526,4.546,8.46,8.46,0,0,1-3.645,2.873H44.226a8.46,8.46,0,0,1-3.645-2.873,7.729,7.729,0,0,1-1.526-4.546,8.4,8.4,0,0,1,1.037-4.233A6.576,6.576,0,0,1,43,12.869h7.813A6.575,6.575,0,0,1,53.726,15.558Zm-3.492-3.836H43.578l.664-3.16h5.3ZM47.309,7.416h-.841v-1.2a2.212,2.212,0,0,0,.841,0Zm9.407-.376c-2.51,0-4.951-2.114-5.87-3.007.925-.863,3.362-2.886,5.87-2.886a2.8,2.8,0,0,1,2.608,2.947A2.8,2.8,0,0,1,56.716,7.04Z" transform="translate(-37.709 0.2)"/></svg>