<?xml version="1.0"?>
<svg xmlns="http://www.w3.org/2000/svg" xmlns:xlink="http://www.w3.org/1999/xlink" xmlns:svgjs="http://svgjs.com/svgjs" version="1.1" width="512" height="512" x="0" y="0" viewBox="0 0 512 512" style="enable-background:new 0 0 512 512" xml:space="preserve" class=""><g><g xmlns="http://www.w3.org/2000/svg"><path d="m509.07 53.93c-1.86-1.86-4.44-2.93-7.07-2.93h-201c-5.51 0-10 4.49-10 10s4.49 10 10 10h191v310h-472v-310h191c5.51 0 10-4.49 10-10s-4.49-10-10-10h-201c-2.63 0-5.21 1.07-7.07 2.93s-2.93 4.44-2.93 7.07v330c0 2.63 1.07 5.21 2.93 7.07s4.44 2.93 7.07 2.93h85.857l-42.929 42.929c-2.86 2.86-3.715 7.161-2.167 10.898s5.195 6.173 9.239 6.173h60c2.652 0 5.196-1.054 7.071-2.929l57.072-57.071h143.715l57.071 57.071c1.875 1.875 4.419 2.929 7.071 2.929h60c4.044 0 7.691-2.437 9.239-6.173s.692-8.038-2.167-10.898l-42.929-42.929h85.857c2.63 0 5.21-1.07 7.07-2.93s2.93-4.44 2.93-7.07v-330c0-2.63-1.07-5.21-2.93-7.07zm-393.212 387.07h-31.716l40-40h31.716zm312 0h-31.716l-40-40h31.716z" fill="#ff6d00" data-original="#000000" style=""/><circle cx="256" cy="61" r="10" fill="#ff6d00" data-original="#000000" style=""/><path d="m80 256c-16.542 0-30 13.458-30 30s13.458 30 30 30 30-13.458 30-30-13.458-30-30-30zm0 40c-5.514 0-10-4.486-10-10s4.486-10 10-10 10 4.486 10 10-4.486 10-10 10z" fill="#ff6d00" data-original="#000000" style=""/><path d="m80 136c-16.542 0-30 13.458-30 30s13.458 30 30 30 30-13.458 30-30-13.458-30-30-30zm0 40c-5.514 0-10-4.486-10-10s4.486-10 10-10 10 4.486 10 10-4.486 10-10 10z" fill="#ff6d00" data-original="#000000" style=""/><path d="m330.443 116h-22.658c-5.523 0-10 4.477-10 10v78.7 1.3c0 2.659 1.059 5.208 2.942 7.084 1.875 1.868 4.413 2.916 7.058 2.916.013 0 17.04-.065 23.496-.178 24.028-.42 41.468-21.374 41.468-49.822 0-29.907-17.001-50-42.306-50zm.489 79.825c-3.002.052-8.345.094-13.146.124v-59.949h12.658c16.446 0 22.306 15.497 22.306 30-.001 14.656-6.747 29.562-21.818 29.825z" fill="#ff6d00" data-original="#000000" style=""/><path d="m222.424 174.628h35.361v31.372c0 5.523 4.477 10 10 10s10-4.477 10-10v-80c0-5.523-4.477-10-10-10s-10 4.477-10 10v28.628h-35.361v-28.628c0-5.523-4.477-10-10-10s-10 4.477-10 10v80c0 5.523 4.477 10 10 10s10-4.477 10-10z" fill="#ff6d00" data-original="#000000" style=""/><path d="m140 216c5.523 0 10-4.477 10-10v-30.758h19.849c5.523 0 10-4.477 10-10s-4.477-10-10-10h-19.849v-19.242h22.424c5.523 0 10-4.477 10-10s-4.477-10-10-10h-32.424c-5.523 0-10 4.477-10 10v80c0 5.523 4.477 10 10 10z" fill="#ff6d00" data-original="#000000" style=""/><path d="m283.055 318.803-35.672-34.415 32.655-30.017c4.066-3.737 4.333-10.063.595-14.129-3.737-4.067-10.064-4.333-14.129-.595l-26.267 24.144v-17.791c0-5.523-4.477-10-10-10s-10 4.477-10 10v80c0 5.523 4.477 10 10 10s10-4.477 10-10v-20.715l28.931 27.912c1.941 1.872 4.443 2.803 6.942 2.803 2.619 0 5.235-1.023 7.198-3.057 3.835-3.974 3.721-10.305-.253-14.14z" fill="#ff6d00" data-original="#000000" style=""/><path d="m190.237 292.388h-.163c.11-19.136.159-38.818-.08-41.674-.565-6.781-4.67-12.321-10.457-14.114-5.756-1.78-11.851.412-16.301 5.872-4.601 5.646-25.65 43.59-31.992 55.085-1.709 3.098-1.654 6.868.145 9.915 1.799 3.046 5.073 4.916 8.611 4.916h29.938c-.035 4.783-.072 9.365-.108 13.525-.048 5.523 4.391 10.039 9.913 10.086h.088c5.482 0 9.95-4.421 9.998-9.914.028-3.292.068-8.09.111-13.698h.297c5.523 0 10-4.477 10-10s-4.477-9.999-10-9.999zm-20.168 0h-13.069c4.759-8.499 9.384-16.648 13.164-23.176-.012 6.708-.047 14.799-.095 23.176z" fill="#ff6d00" data-original="#000000" style=""/></g></g></svg>
