<svg xmlns="http://www.w3.org/2000/svg" width="22.051" height="22.051" viewBox="0 0 22.051 22.051"><defs><style>.a{fill:#ff6d00;}</style></defs><path class="a" d="M216.919,267.109a.919.919,0,0,0,.919-.919v-1.385a.919.919,0,1,0-1.838,0v1.385A.919.919,0,0,0,216.919,267.109Zm0,0" transform="translate(-203.596 -248.733)"/><path class="a" d="M136.919,267.05a.919.919,0,0,0,.919-.919v-1.388a.919.919,0,1,0-1.838,0v1.388A.919.919,0,0,0,136.919,267.05Zm0,0" transform="translate(-128.19 -248.674)"/><path class="a" d="M21.231,6.86A11.022,11.022,0,0,0,.568,7.54a.864.864,0,0,0-.033.1A10.968,10.968,0,0,0,0,11.025v1.838a.919.919,0,0,0,.919.919H3.675v4.135A4.139,4.139,0,0,0,7.81,22.051h6.431a4.139,4.139,0,0,0,4.135-4.135V13.782h2.756a.919.919,0,0,0,.919-.919V11.025a10.956,10.956,0,0,0-.812-4.145C21.237,6.873,21.234,6.867,21.231,6.86Zm-1.967.124a4.593,4.593,0,0,1-7.779-3.309,4.612,4.612,0,0,1,.367-1.8A9.2,9.2,0,0,1,19.264,6.985ZM5.041,11.944h-3.2v-.919A9.141,9.141,0,0,1,2.2,8.507a2.3,2.3,0,0,1,3.315,2.059A2.252,2.252,0,0,1,5.041,11.944Zm11.5,5.972a2.3,2.3,0,0,1-2.3,2.3H7.81a2.3,2.3,0,0,1-2.3-2.3V13.782H16.538Zm3.675-5.972H7.107A4.118,4.118,0,0,0,3.216,6.431c-.048,0-.094.009-.142.011a9.194,9.194,0,0,1,6.82-4.527,6.427,6.427,0,0,0,6.184,8.192,6.4,6.4,0,0,0,3.856-1.288,9.157,9.157,0,0,1,.279,2.207Zm0,0" transform="translate(0)"/></svg>