<svg xmlns="http://www.w3.org/2000/svg" width="29.638" height="28.074" viewBox="0 0 29.638 28.074"><defs><style>.a{fill:#fa6523;stroke:#fa6523;stroke-width:0.4px;}</style></defs><g transform="translate(0.215 0.244)"><g transform="translate(19.602 1.526)"><path class="a" d="M350.277,40.517a.524.524,0,0,0-.741,0L344.1,45.95a.524.524,0,0,0,.741.741l5.433-5.433A.524.524,0,0,0,350.277,40.517Z" transform="translate(-343.95 -40.364)"/></g><g transform="translate(21.079 2.98)"><path class="a" d="M376.2,66.033a.524.524,0,0,0-.741,0l-5.433,5.433a.524.524,0,0,0,.741.741l5.433-5.433A.524.524,0,0,0,376.2,66.033Z" transform="translate(-369.876 -65.879)"/></g><g transform="translate(1.547 4.669)"><path class="a" d="M47.886,103.153l6.744-6.744a.524.524,0,0,0-.741-.741l-6.744,6.744a2.782,2.782,0,0,1-3.161.543.524.524,0,0,0-.618.125l-2.292,2.582,0,0,0,0-9.9,11.159-.007.009c-.033.038-.063.072-.095.1a1.677,1.677,0,1,1-2.371-2.372c.03-.031.064-.061.1-.094l.009-.007,6.192-5.5a.524.524,0,1,0-.7-.784l-6.188,5.492c-.059.05-.112.1-.161.149A2.725,2.725,0,0,0,31.8,117.68c.05-.05.1-.1.149-.162l7.547-8.5,7.547,8.5c.05.059.1.112.149.162a2.725,2.725,0,0,0,3.854-3.853c-.05-.05-.1-.1-.162-.149L42.2,105.969l1.7-1.914A3.833,3.833,0,0,0,47.886,103.153ZM50.2,114.464l.009.007c.038.033.072.063.1.095a1.677,1.677,0,1,1-2.372,2.371c-.031-.031-.062-.065-.095-.1l-.007-.009-7.634-8.6,1.307-1.473Z" transform="translate(-27.152 -95.515)"/></g><path class="a" d="M24.357,13.74a.524.524,0,0,0-.741,0l-6.744,6.744a3.833,3.833,0,0,0-.9,3.983L13.9,26.309,11.9,24.539a5.27,5.27,0,0,0-.981-6.13,11.929,11.929,0,0,0-5.3-3.22,4.579,4.579,0,0,0-4.519.886,4.579,4.579,0,0,0-.886,4.519,11.929,11.929,0,0,0,3.221,5.3,5.27,5.27,0,0,0,6.13.982L11.54,29.1a.524.524,0,0,0,.74.044L16.945,25a.524.524,0,0,0,.125-.618,2.782,2.782,0,0,1,.543-3.161l6.744-6.744A.524.524,0,0,0,24.357,13.74ZM11.976,28.013l-1.907-2.149a.524.524,0,0,0-.667-.1,4.227,4.227,0,0,1-5.226-.613A10.878,10.878,0,0,1,1.23,20.337a3.59,3.59,0,0,1,.611-3.522A3.59,3.59,0,0,1,5.363,16.2a10.877,10.877,0,0,1,4.816,2.945,4.227,4.227,0,0,1,.613,5.226.524.524,0,0,0,.1.667l2.216,1.967Z" transform="translate(0 -13.586)"/></g></svg>