<svg xmlns="http://www.w3.org/2000/svg" width="27.409" height="24.63" viewBox="0 0 27.409 24.63"><defs><style>.a{fill:#ff6d00;}</style></defs><g transform="translate(3775.833 -4119.604)"><path class="a" d="M200.625,180.081h0a.751.751,0,0,0-.751.75l0,2.3a5.324,5.324,0,0,1-4.572,5.257l.016-11.544a.751.751,0,0,0-.75-.752h0a.751.751,0,0,0-.751.75l-.018,12.348a.751.751,0,0,0,.75.752h.01a6.818,6.818,0,0,0,6.818-6.808l0-2.3A.751.751,0,0,0,200.625,180.081Z" transform="translate(-3966.581 3946.124)"/><path class="a" d="M264.545,191.785h0a1.349,1.349,0,1,0,0,2.7h0a1.349,1.349,0,1,0,0-2.7Zm0,1.5a.153.153,0,1,1,.136-.075.153.153,0,0,1-.136.075Z" transform="translate(-4027.293 3932.392)"/><path class="a" d="M127.378,74.952l-2.415-2.1,1.575,0a.844.844,0,0,1,.842.844Zm-.047,1.949.044-.051,0,1.4a1.273,1.273,0,0,1-1.271,1.27h0l-9-.013a8.022,8.022,0,0,1-4.264-1.232.751.751,0,1,0-.8,1.272,9.519,9.519,0,0,0,3.878,1.386,9.318,9.318,0,0,0-1.616,1.286,11.323,11.323,0,0,0-2.5,5.005l-8.825-1.352L103,68.061a2.44,2.44,0,0,1,2.437-2.434h0l8.965.013a1.274,1.274,0,0,1,1.035.535l4.131,5.814a2.037,2.037,0,0,0,1.658.857l1.464,0-.012.013ZM113.085,88.754a7.743,7.743,0,0,1,7.743-7.732h.013a.76.76,0,0,0,.1-.008l5.155.007h0a2.777,2.777,0,0,0,2.773-2.769l.007-4.553a2.348,2.348,0,0,0-2.342-2.349l-5.306-.008a.528.528,0,0,1-.145-.02.537.537,0,0,1-.29-.2L116.667,65.3a2.779,2.779,0,0,0-2.257-1.167l-8.965-.013h-.006a3.944,3.944,0,0,0-3.939,3.934L101.472,86.9Z" transform="translate(-3877.305 4055.48)"/></g></svg>