<svg xmlns="http://www.w3.org/2000/svg" width="37.989" height="18.728" viewBox="0 0 37.989 18.728"><defs><style>.a{fill:#fa6523;stroke:#fa6523;stroke-width:0.4px;}</style></defs><g transform="translate(0.2 0.241)"><path class="a" d="M37.586,142.718a2.218,2.218,0,0,0-.38-.932.558.558,0,0,0-.1-.138c-.634-.851-2.1-1.924-5.5-2.1-.4-.02-.8-.053-1.193-.1a.558.558,0,0,0-.124,1.11c.416.047.84.081,1.26.1,2.441.125,3.659.731,4.251,1.217.066.054.125.107.178.16-1.734,1.859-6.547,2.709-10.486,2.709H10.607a.558.558,0,1,0,0,1.116H25.5a29.2,29.2,0,0,0,6.434-.713,10.523,10.523,0,0,0,4.542-2.032V145.2c-1.11,2.516-7.144,3.432-10.976,3.432H1.117v-2.763H8.746a.558.558,0,0,0,0-1.117H1.117v-1.178l1.338-6.691a17.6,17.6,0,0,0,7.228,1.684,4.876,4.876,0,0,0,4.442-2.667,7.749,7.749,0,0,0,.719-1.817l3.059,1.59-.778,1.1a.558.558,0,1,0,.912.644l.866-1.226,2.719,1.413-.767,1.116a.558.558,0,0,0,.92.633l.845-1.23.519.27a20.323,20.323,0,0,0,5.264,1.868.558.558,0,1,0,.226-1.093,19.209,19.209,0,0,1-4.975-1.765l-.4-.206.16-.232a.558.558,0,0,0-.92-.633l-.238.346-2.706-1.407.276-.392a.558.558,0,1,0-.912-.644l-.364.516-3.82-1.986-1.764-1.207a.558.558,0,0,0-.63.922l1.5,1.023a6.713,6.713,0,0,1-.683,1.851,3.768,3.768,0,0,1-3.468,2.1,16.718,16.718,0,0,1-7.355-1.884.558.558,0,0,0-.824.376L.013,143.4a.572.572,0,0,0-.013.12v1.792s0,0,0,.005v3.875a.558.558,0,0,0,.558.558H25.5a28.867,28.867,0,0,0,6.932-.838c2.814-.745,4.538-1.888,5.123-3.4a.557.557,0,0,0,.038-.2v-2.539C37.589,142.754,37.588,142.736,37.586,142.718Z" transform="translate(0 -131.462)"/></g></svg>