<?xml version="1.0" encoding="utf-8"?>
<!-- Generator: Adobe Illustrator 24.1.0, SVG Export Plug-In . SVG Version: 6.00 Build 0)  -->
<svg version="1.1" id="Camada_1" xmlns="http://www.w3.org/2000/svg" xmlns:xlink="http://www.w3.org/1999/xlink" x="0px" y="0px"
	 viewBox="0 0 32 32" style="enable-background:new 0 0 32 32;" xml:space="preserve">
<style type="text/css">
	.st0{fill-rule:evenodd;clip-rule:evenodd;fill:url(#Oval_2_);}
	.st1{fill:#FFFFFF;}
</style>
<g>
	
		<linearGradient id="Oval_2_" gradientUnits="userSpaceOnUse" x1="-775.8223" y1="274.0444" x2="-775.1152" y2="274.7514" gradientTransform="matrix(32 0 0 -32 24831 8796.7324)">
		<stop  offset="0" style="stop-color:#FFDD55"/>
		<stop  offset="0.5" style="stop-color:#FF543E"/>
		<stop  offset="1" style="stop-color:#C837AB"/>
	</linearGradient>
	<circle id="Oval_1_" class="st0" cx="16" cy="16" r="16"/>
	<path class="st1" d="M16,7.8c-3.4,0-6.6-0.3-7.8,2.8c-0.5,1.3-0.4,3-0.4,5.4c0,2.1-0.1,4.1,0.4,5.4c1.2,3.1,4.4,2.8,7.8,2.8
		c3.2,0,6.5,0.3,7.8-2.8c0.5-1.3,0.4-3,0.4-5.4c0-3.2,0.2-5.3-1.4-6.8C21.3,7.6,19.1,7.8,16,7.8L16,7.8z M15.3,9.3
		c7,0,7.9-0.8,7.4,10.1c-0.2,3.8-3.1,3.4-6.7,3.4c-6.5,0-6.7-0.2-6.7-6.7C9.3,9.4,9.8,9.3,15.3,9.3L15.3,9.3z M20.4,10.6
		c-0.5,0-1,0.4-1,1c0,0.5,0.4,1,1,1s1-0.4,1-1C21.4,11.1,20.9,10.6,20.4,10.6z M16,11.8c-2.3,0-4.2,1.9-4.2,4.2s1.9,4.2,4.2,4.2
		s4.2-1.9,4.2-4.2S18.3,11.8,16,11.8L16,11.8z M16,13.3c3.6,0,3.6,5.5,0,5.5C12.4,18.7,12.4,13.3,16,13.3z"/>
	<desc>Created with Sketch.</desc>
</g>
</svg>
