<?xml version="1.0" encoding="utf-8"?>
<!-- Generator: Adobe Illustrator 25.0.1, SVG Export Plug-In . SVG Version: 6.00 Build 0)  -->
<svg version="1.1" id="Camada_1" xmlns="http://www.w3.org/2000/svg" xmlns:xlink="http://www.w3.org/1999/xlink" x="0px" y="0px"
	 viewBox="0 0 32 32" style="enable-background:new 0 0 32 32;" xml:space="preserve">
<style type="text/css">
	.st0{fill:url(#SVGID_1_);}
	.st1{fill:#FFFFFF;}
</style>
<g>
	
		<radialGradient id="SVGID_1_" cx="-443.5773" cy="426.5385" r="4.363038e-02" gradientTransform="matrix(799.1497 0 0 799.0772 354490.8125 -340805.4062)" gradientUnits="userSpaceOnUse">
		<stop  offset="0" style="stop-color:#0099FF"/>
		<stop  offset="0.6098" style="stop-color:#A033FF"/>
		<stop  offset="0.9348" style="stop-color:#FF5280"/>
		<stop  offset="1" style="stop-color:#FF7061"/>
	</radialGradient>
	<path class="st0" d="M16,0C7,0,0,6.6,0,15.5c0,4.7,1.9,8.7,5,11.5c0.3,0.2,0.4,0.6,0.4,0.9l0.1,2.8c0,0.9,1,1.5,1.8,1.1l3.2-1.4
		c0.3-0.1,0.6-0.1,0.9-0.1c1.5,0.4,3,0.6,4.6,0.6c9,0,16-6.6,16-15.5S25,0,16,0z"/>
	<path class="st1" d="M6.4,20l4.7-7.5c0.7-1.2,2.3-1.5,3.5-0.6l3.7,2.8c0.3,0.3,0.8,0.3,1.2,0l5-3.8c0.7-0.5,1.6,0.3,1.1,1l-4.7,7.5
		c-0.7,1.2-2.3,1.5-3.5,0.6l-3.7-2.8c-0.3-0.3-0.8-0.3-1.2,0l-5,3.8C6.8,21.6,5.9,20.8,6.4,20z"/>
</g>
</svg>
