<?xml version="1.0" encoding="utf-8"?>
<!-- Generator: Adobe Illustrator 24.1.0, SVG Export Plug-In . SVG Version: 6.00 Build 0)  -->
<svg version="1.1" id="Camada_1" xmlns="http://www.w3.org/2000/svg" xmlns:xlink="http://www.w3.org/1999/xlink" x="0px" y="0px"
	 viewBox="0 0 32 32" style="enable-background:new 0 0 32 32;" xml:space="preserve">
<style type="text/css">
	.st0{fill:#2196F3;}
	.st1{fill:#FAFAFA;}
</style>
<desc>Created with Sketch.</desc>
<g>
	<path class="st0" d="M16,0C7.4-0.2,0.2,6.7,0,15.3c0,4.4,2,8.6,5.3,11.4v4.6C5.3,31.7,5.6,32,6,32c0.1,0,0.2,0,0.4-0.1l3.7-2.3
		c1.9,0.7,3.9,1.1,5.9,1.1c8.6,0.2,15.8-6.7,16-15.3C31.8,6.7,24.6-0.2,16,0z"/>
	<path class="st1" d="M26.5,10.9c-0.2-0.3-0.6-0.3-0.9-0.2l-6.9,3.8l-4.3-3.7c-0.3-0.2-0.7-0.2-0.9,0l-8,8c-0.3,0.3-0.3,0.7,0,0.9
		c0.2,0.2,0.5,0.3,0.8,0.1l6.9-3.8l4.3,3.7c0.3,0.2,0.7,0.2,0.9,0l8-8C26.7,11.6,26.7,11.2,26.5,10.9z"/>
</g>
</svg>
