<?xml version="1.0" encoding="utf-8"?>
<!-- Generator: Adobe Illustrator 25.0.1, SVG Export Plug-In . SVG Version: 6.00 Build 0)  -->
<svg version="1.1" id="Layer_1" xmlns="http://www.w3.org/2000/svg" xmlns:xlink="http://www.w3.org/1999/xlink" x="0px" y="0px"
	 viewBox="0 0 32 32" style="enable-background:new 0 0 32 32;" xml:space="preserve">
<style type="text/css">
	.st0{fill-rule:evenodd;clip-rule:evenodd;fill:url(#Fill-1_1_);}
	.st1{fill-rule:evenodd;clip-rule:evenodd;fill:url(#Fill-4_1_);}
	.st2{fill-rule:evenodd;clip-rule:evenodd;fill:#E50A15;}
</style>
<path d="M27,32H5c-2.8,0-5-2.3-5-5V5c0-2.8,2.3-5,5-5h22c2.8,0,5,2.3,5,5v22C32,29.7,29.7,32,27,32z"/>
<linearGradient id="Fill-1_1_" gradientUnits="userSpaceOnUse" x1="-1095.3541" y1="1009.2847" x2="-1095.3641" y2="1009.2747" gradientTransform="matrix(3.02 0 0 -15.99 3321.8799 16148.9609)">
	<stop  offset="0" style="stop-color:#80020E"/>
	<stop  offset="1" style="stop-color:#B10610"/>
</linearGradient>
<path id="Fill-1" class="st0" d="M11.8,8.2L11.4,8l0,0v16c1.2-0.1,1.8-0.2,3-0.3v-8L13.8,14c-0.2-0.6-1.2-3.7-1.3-3.9l-0.4-1
	c0-0.1-0.1-0.4-0.2-0.6L11.8,8.2"/>
<linearGradient id="Fill-4_1_" gradientUnits="userSpaceOnUse" x1="-1095.382" y1="1009.2523" x2="-1095.402" y2="1009.2323" gradientTransform="matrix(3.02 0 0 -15.99 3327.3198 16148.8301)">
	<stop  offset="0" style="stop-color:#B10610"/>
	<stop  offset="1" style="stop-color:#80020E"/>
</linearGradient>
<path id="Fill-4" class="st1" d="M19.3,23.8l0.5,0.2l0,0V8h-3v8.3c0.1,0.3,0.5,1.4,0.6,1.7c0.2,0.5,1.3,3.7,1.3,3.9s0.3,0.9,0.4,1
	l0.2,0.6C19.3,23.7,19.3,23.7,19.3,23.8"/>
<path id="Fill-7" class="st2" d="M14.4,8h-3l5.3,15.7c1.5,0,3.1,0.3,3.1,0.3L14.4,8"/>
</svg>
