<?xml version="1.0" encoding="utf-8"?>
<!-- Generator: Adobe Illustrator 24.1.0, SVG Export Plug-In . SVG Version: 6.00 Build 0)  -->
<svg version="1.1" id="Camada_1" xmlns="http://www.w3.org/2000/svg" xmlns:xlink="http://www.w3.org/1999/xlink" x="0px" y="0px"
	 viewBox="0 0 32 32" style="enable-background:new 0 0 32 32;" xml:space="preserve">
<style type="text/css">
	.st0{fill-rule:evenodd;clip-rule:evenodd;fill:#61A8DE;}
	.st1{fill:#FFFFFF;}
</style>
<desc>Created with Sketch.</desc>
<g>
	<circle id="Oval" class="st0" cx="16" cy="16" r="16"/>
	<path class="st1" d="M22.6,9.6L7.9,15.4c-0.5,0.2-0.4,0.9,0,1l3.7,1.1l1.4,4.4c0.1,0.5,0.7,0.6,1.1,0.3l1.9-2l3.8,2.8
		c0.5,0.3,1.1,0.1,1.2-0.5l2.5-12C23.7,9.9,23.1,9.4,22.6,9.6z M20.7,12.3l-6.8,6c-0.1,0.1-0.1,0.1-0.1,0.2l-0.3,2.3
		c0,0.1-0.1,0.1-0.1,0l-1.1-3.5c0-0.2,0-0.3,0.2-0.4l8.1-5C20.7,11.9,20.9,12.2,20.7,12.3z"/>
</g>
</svg>
