<?xml version="1.0" encoding="utf-8"?>
<!-- Generator: Adobe Illustrator 25.0.1, SVG Export Plug-In . SVG Version: 6.00 Build 0)  -->
<svg version="1.1" id="Layer_1" xmlns="http://www.w3.org/2000/svg" xmlns:xlink="http://www.w3.org/1999/xlink" x="0px" y="0px"
	 viewBox="0 0 32 32" style="enable-background:new 0 0 32 32;" xml:space="preserve">
<style type="text/css">
	.st0{fill:#FF004F;}
	.st1{fill:#FFFFFF;}
	.st2{fill:#00F2EA;}
</style>
<path d="M27,32H5c-2.8,0-5-2.3-5-5V5c0-2.8,2.3-5,5-5h22c2.8,0,5,2.3,5,5v22C32,29.7,29.7,32,27,32z"/>
<g>
	<path class="st0" d="M20.8,12.9c1.4,1,3.2,1.6,5.1,1.6v-3.7c-0.4,0-0.7,0-1.1-0.1v2.9c-1.9,0-3.7-0.6-5.1-1.6v7.5
		c0,3.8-3.1,6.8-6.8,6.8c-1.4,0-2.7-0.4-3.8-1.2c1.2,1.3,3,2.1,4.9,2.1c3.8,0,6.8-3.1,6.8-6.8V12.9L20.8,12.9z M22.1,9.2
		c-0.7-0.8-1.2-1.9-1.3-3V5.7h-1C20,7.1,20.9,8.4,22.1,9.2L22.1,9.2z M11.5,22.3c-0.4-0.5-0.6-1.2-0.6-1.9c0-1.7,1.4-3.1,3.1-3.1
		c0.3,0,0.6,0,0.9,0.1v-3.8c-0.4,0-0.7-0.1-1.1-0.1v2.9c-0.3-0.1-0.6-0.1-0.9-0.1c-1.7,0-3.1,1.4-3.1,3.1
		C9.8,20.7,10.5,21.8,11.5,22.3z"/>
	<path class="st1" d="M19.7,12c1.4,1,3.2,1.6,5.1,1.6v-2.9c-1.1-0.2-2-0.8-2.7-1.6c-1.2-0.8-2.1-2-2.4-3.5H17v14.7
		c0,1.7-1.4,3.1-3.1,3.1c-1,0-1.9-0.5-2.5-1.2c-1-0.5-1.7-1.6-1.7-2.8c0-1.7,1.4-3.1,3.1-3.1c0.3,0,0.6,0.1,0.9,0.1v-2.9
		C10,13.6,7,16.6,7,20.3c0,1.9,0.7,3.5,1.9,4.8c1.1,0.7,2.4,1.2,3.8,1.2c3.8,0,6.8-3.1,6.8-6.8L19.7,12L19.7,12z"/>
	<path class="st2" d="M24.9,10.7V9.9c-1,0-1.9-0.3-2.7-0.8C22.8,10,23.8,10.5,24.9,10.7z M19.8,5.7c0-0.1,0-0.3-0.1-0.4V4.8H16v14.7
		c0,1.7-1.4,3.1-3.1,3.1c-0.5,0-1-0.1-1.4-0.3c0.6,0.7,1.5,1.2,2.5,1.2c1.7,0,3.1-1.4,3.1-3.1V5.7H19.8z M13.8,13.6v-0.8
		c-0.3,0-0.6-0.1-0.9-0.1c-3.8,0-6.8,3.1-6.8,6.8c0,2.4,1.2,4.4,3,5.7c-1.2-1.2-1.9-2.9-1.9-4.8C7.1,16.7,10.1,13.7,13.8,13.6z"/>
</g>
</svg>
