<?xml version="1.0" encoding="utf-8"?>
<!-- Generator: Adobe Illustrator 24.1.0, SVG Export Plug-In . SVG Version: 6.00 Build 0)  -->
<svg version="1.1" id="Camada_1" xmlns="http://www.w3.org/2000/svg" xmlns:xlink="http://www.w3.org/1999/xlink" x="0px" y="0px"
	 viewBox="0 0 32 32" style="enable-background:new 0 0 32 32;" xml:space="preserve">
<style type="text/css">
	.st0{fill-rule:evenodd;clip-rule:evenodd;fill:#1DA1F3;}
	.st1{fill-rule:evenodd;clip-rule:evenodd;fill:#FFFFFF;}
</style>
<desc>Created with Sketch.</desc>
<g id="App-_x2F_-Partners-_x2F_-32px-_x28_Alternative_x29_-_x2F_-Twitter">
	<g id="Twitter">
		<circle id="Oval" class="st0" cx="16" cy="16" r="16"/>
		<path id="Fill-2" class="st1" d="M13.6,23.1c5.7,0,8.8-4.8,8.8-8.9c0-0.1,0-0.3,0-0.4c0.6-0.4,1.1-1,1.5-1.6
			c-0.6,0.3-1.2,0.4-1.8,0.5c0.6-0.4,1.1-1,1.4-1.7c-0.6,0.4-1.3,0.6-2,0.8c-1.2-1.3-3.1-1.3-4.4-0.1c-0.8,0.8-1.1,1.9-0.9,3
			c-2.5-0.1-4.8-1.3-6.4-3.3c-0.8,1.4-0.4,3.3,1,4.2c-0.5,0-1-0.1-1.4-0.4v0c0,1.5,1,2.8,2.5,3.1c-0.5,0.1-0.9,0.1-1.4,0.1
			c0.4,1.3,1.6,2.2,2.9,2.2c-1.1,0.9-2.5,1.3-3.9,1.3c-0.2,0-0.5,0-0.7,0C10.3,22.6,12,23.1,13.6,23.1"/>
	</g>
</g>
</svg>
