<?xml version="1.0" encoding="utf-8"?>
<!-- Generator: Adobe Illustrator 24.1.0, SVG Export Plug-In . SVG Version: 6.00 Build 0)  -->
<svg version="1.1" id="Camada_1" xmlns="http://www.w3.org/2000/svg" xmlns:xlink="http://www.w3.org/1999/xlink" x="0px" y="0px"
	 viewBox="0 0 32 32" style="enable-background:new 0 0 32 32;" xml:space="preserve">
<style type="text/css">
	.st0{fill-rule:evenodd;clip-rule:evenodd;fill:#1BD741;}
	.st1{fill:#FFFFFF;}
</style>
<desc>Created with Sketch.</desc>
<g>
	<circle id="Oval" class="st0" cx="16" cy="16" r="16"/>
	<g>
		<g>
			<path class="st1" d="M7.8,24l1.1-4c-0.7-1.1-1-2.5-1-4c0-4.4,3.6-7.9,7.9-7.9s7.9,3.6,7.9,7.9s-3.5,8-7.9,8c-1.4,0-2.7-0.3-3.9-1
				L7.8,24z M12.1,21.5l0.2,0.1c1,0.6,2.2,1,3.4,1c3.6,0,6.6-3,6.6-6.6s-3-6.6-6.6-6.6s-6.6,3-6.6,6.6c0,1.3,0.4,2.5,1,3.6l0.2,0.3
				l-0.6,2.3L12.1,21.5z"/>
		</g>
		<path class="st1" d="M19.6,17.8l-1.5-0.4c-0.2-0.1-0.4,0-0.5,0.1l-0.4,0.4c-0.2,0.2-0.4,0.2-0.6,0.1c-0.7-0.3-2.2-1.6-2.6-2.3
			c-0.1-0.2-0.1-0.4,0-0.6l0.3-0.4c0.1-0.2,0.2-0.4,0.1-0.6l-0.6-1.4c-0.1-0.3-0.6-0.4-0.9-0.2c-0.4,0.4-0.9,0.9-1,1.5
			c-0.1,1,0.3,2.4,2,3.9c1.9,1.8,3.5,2.1,4.5,1.8c0.6-0.1,1-0.7,1.3-1.2C20.1,18.3,20,17.9,19.6,17.8z"/>
	</g>
</g>
</svg>
