<?xml version="1.0" encoding="utf-8"?>
<!-- Generator: Adobe Illustrator 25.0.1, SVG Export Plug-In . SVG Version: 6.00 Build 0)  -->
<svg version="1.1" id="Layer_1" xmlns="http://www.w3.org/2000/svg" xmlns:xlink="http://www.w3.org/1999/xlink" x="0px" y="0px"
	 viewBox="0 0 32 32" style="enable-background:new 0 0 32 32;" xml:space="preserve">
<style type="text/css">
	.st0{fill:#E20D16;}
	.st1{fill-rule:evenodd;clip-rule:evenodd;fill:#FFFFFF;}
	.st2{fill-rule:evenodd;clip-rule:evenodd;fill:#E20A12;}
</style>
<path class="st0" d="M27,32H5c-2.8,0-5-2.3-5-5V5c0-2.8,2.3-5,5-5h22c2.8,0,5,2.3,5,5v22C32,29.7,29.7,32,27,32z"/>
<g>
	<path id="Fill-1_1_" class="st1" d="M24.6,11.8c-0.2-0.8-0.8-1.4-1.6-1.6c-2.4-0.3-4.8-0.4-7.2-0.4c-2.4,0-4.8,0.1-7.2,0.4
		C7.8,10.4,7.2,11,7,11.8c-0.3,1.5-0.4,2.9-0.4,4.4c0,1.5,0.1,3,0.4,4.4c0.2,0.8,0.8,1.4,1.6,1.6c2.4,0.3,4.8,0.4,7.2,0.4
		c2.4,0,4.8-0.1,7.2-0.4c0.8-0.2,1.4-0.8,1.6-1.6c0.3-1.5,0.4-2.9,0.4-4.4C25,14.7,24.9,13.2,24.6,11.8"/>
	<polyline id="Fill-4_1_" class="st2" points="13.8,18.8 18.5,16.1 13.8,13.3 13.8,18.8 	"/>
</g>
</svg>
